<svg xmlns="http://www.w3.org/2000/svg" viewBox="0 0 56.44 28.69"><defs><style>.cls-1{fill:#4d4d4d;}</style></defs><g id="Слой_2" data-name="Слой 2"><g id="Слой_1-2" data-name="Слой 1"><path class="cls-1" d="M24.86,4A10.86,10.86,0,0,1,39,13.67a10.93,10.93,0,0,1-.5,4l6.58,6.58A49.19,49.19,0,0,0,55.29,17a3.54,3.54,0,0,0,0-5.22C50.82,7.6,40.85,0,28.17,0a32.49,32.49,0,0,0-6.64.69Z"/><path class="cls-1" d="M31.6,24.63A10.83,10.83,0,0,1,17.89,10.92L11.37,4.4A49.45,49.45,0,0,0,1.22,11.58a3.76,3.76,0,0,0,0,5.54c4.57,4.17,14.44,11.57,27,11.57A32.29,32.29,0,0,0,34.94,28Z"/></g></g></svg>