<svg xmlns="http://www.w3.org/2000/svg" viewBox="0 0 56.44 41"><defs><style>.cls-1{fill:#4d4d4d;}</style></defs><g id="Слой_2" data-name="Слой 2"><g id="Слой_1-2" data-name="Слой 1"><rect class="cls-1" x="0.28" y="17.85" width="55.79" height="5.3" rx="2.65" transform="translate(22.75 -13.92) rotate(45)"/><path class="cls-1" d="M24.86,10.1A10.83,10.83,0,0,1,38.49,23.73l6.58,6.58A49.94,49.94,0,0,0,55.29,23a3.55,3.55,0,0,0,0-5.23C50.82,13.68,40.85,6.08,28.17,6.08a32.49,32.49,0,0,0-6.64.69Z"/><path class="cls-1" d="M31.6,30.7A10.83,10.83,0,0,1,17.89,17l-6.52-6.51A49.85,49.85,0,0,0,1.22,17.65a3.76,3.76,0,0,0,0,5.54c4.57,4.18,14.44,11.58,27,11.58a33,33,0,0,0,6.77-.72Z"/></g></g></svg>