<svg xmlns="http://www.w3.org/2000/svg" viewBox="0 0 71 71"><defs><style>.cls-1,.cls-2{fill:#e6e6e6;}.cls-2,.cls-3{stroke:#000;}.cls-2{stroke-linecap:round;stroke-miterlimit:10;stroke-width:6px;}.cls-3{stroke-linejoin:round;}</style></defs><g id="Слой_2" data-name="Слой 2"><g id="Слой_1-2" data-name="Слой 1"><rect class="cls-1" width="71" height="71" rx="19.81"/><path class="cls-2" d="M13,19l5.22,1.3a5,5,0,0,1,3.58,3.45L27,41.4a5,5,0,0,0,4.8,3.6H45.16A5,5,0,0,0,50,41.29L53,30"/><circle cx="29.5" cy="55.5" r="4.22"/><circle cx="47.5" cy="55.5" r="4.22"/><path class="cls-3" d="M41,11.5l-.53,15,3.93-.39c1.19,0,1.93,1,1.34,1.85L39.1,37.48a1.43,1.43,0,0,1-2.2,0L30.23,28c-.59-.82.15-1.85,1.34-1.85l3.93.39L35,11.5Z"/></g></g></svg>