<svg xmlns="http://www.w3.org/2000/svg" viewBox="0 0 98 98"><defs><style>.cls-1,.cls-3{fill:#fff;}.cls-1,.cls-2,.cls-3,.cls-4{stroke:#4d4d4d;stroke-miterlimit:10;}.cls-2{fill:none;}.cls-2,.cls-3,.cls-4{stroke-width:3px;}.cls-4{fill:#4d4d4d;}</style></defs><g id="Слой_2" data-name="Слой 2"><g id="Слой_1-2" data-name="Слой 1"><rect class="cls-1" x="0.5" y="0.5" width="97" height="97" rx="22.21"/><rect class="cls-2" x="11.65" y="38.07" width="75.99" height="10.43" rx="2.59"/><path class="cls-3" d="M19.18,47.78,26.78,77a11,11,0,0,0,10.69,8.27H49.65"/><path class="cls-3" d="M80.12,47.78,72.52,77a11,11,0,0,1-10.69,8.27H49.65"/><rect class="cls-4" x="49.2" y="54.22" width="0.89" height="24.29" rx="0.35"/><rect class="cls-4" x="60.72" y="54.22" width="0.89" height="24.29" rx="0.35" transform="translate(9.83 -7.87) rotate(8)"/><rect class="cls-4" x="37.78" y="54.22" width="0.89" height="24.29" rx="0.35" transform="matrix(-0.99, 0.14, -0.14, -0.99, 85.32, 126.76)"/><rect class="cls-4" x="29.43" y="9.08" width="1.17" height="31.96" rx="0.35" transform="translate(23.13 -13.43) rotate(40)"/><rect class="cls-4" x="68.7" y="9.08" width="1.17" height="31.96" rx="0.35" transform="translate(138.48 -0.27) rotate(140)"/></g></g></svg>