<svg xmlns="http://www.w3.org/2000/svg" viewBox="0 0 71 71"><defs><style>.cls-1{fill:#e6e6e6;}</style></defs><g id="Слой_2" data-name="Слой 2"><g id="Слой_1-2" data-name="Слой 1"><rect class="cls-1" width="71" height="71" rx="19.81"/><path d="M52.71,15.14H55.1a4.09,4.09,0,0,1,4.09,4.09v5a0,0,0,0,1,0,0H48.63a0,0,0,0,1,0,0v-5a4.09,4.09,0,0,1,4.09-4.09Z" transform="translate(29.72 -32.35) rotate(45)"/><rect x="45.15" y="20.35" width="5.64" height="10.56" transform="translate(-4.07 41.43) rotate(-45)"/><path d="M41.63,24.5,20.9,45.24a21,21,0,0,0-5.16,8.45l-1.92,6,6-1.84a21,21,0,0,0,8.67-5.23L49.1,32Z"/></g></g></svg>