<svg xmlns="http://www.w3.org/2000/svg" viewBox="0 0 98 98"><defs><style>.cls-1{fill:#fff;}.cls-1,.cls-2{stroke:#4d4d4d;stroke-miterlimit:10;}.cls-2{fill:#666;}</style></defs><g id="Слой_2" data-name="Слой 2"><g id="Слой_1-2" data-name="Слой 1"><rect class="cls-1" x="0.5" y="0.5" width="97" height="97" rx="22.21"/><path class="cls-2" d="M78.4,22H65.82a2,2,0,0,1-2-2v-.71a2,2,0,0,0-2-2H50.39a2,2,0,0,0-.24,0,2,2,0,0,0-.24,0H38.52a2,2,0,0,0-2,2V20a2,2,0,0,1-2,2H21.91a2,2,0,0,0-2,2v.71a2,2,0,0,0,2,2h28a2,2,0,0,0,.24,0,2,2,0,0,0,.24,0h28a2,2,0,0,0,2-2V24A2,2,0,0,0,78.4,22Z"/><path class="cls-2" d="M76.51,31.51H23.79a3,3,0,0,0-2.9,3.77L33.54,82.69a3,3,0,0,0,2.89,2.23H63.87a3,3,0,0,0,2.9-2.23L79.41,35.28A3,3,0,0,0,76.51,31.51ZM39.58,68.3h-1.7a1.52,1.52,0,0,1-1.51-1.37L34.29,45a1.51,1.51,0,0,1,1.51-1.66h1.7A1.53,1.53,0,0,1,39,44.75l2.08,21.89A1.51,1.51,0,0,1,39.58,68.3ZM52,66.86a1.52,1.52,0,0,1-1.52,1.44h-.66a1.52,1.52,0,0,1-1.52-1.44L47.26,45a1.52,1.52,0,0,1,1.51-1.59h2.76A1.52,1.52,0,0,1,53,45Zm11.93.07a1.51,1.51,0,0,1-1.51,1.37h-1.7a1.52,1.52,0,0,1-1.51-1.66l2.08-21.89a1.53,1.53,0,0,1,1.51-1.37h1.7A1.51,1.51,0,0,1,66,45Z"/></g></g></svg>