<svg xmlns="http://www.w3.org/2000/svg" viewBox="0 0 539.17 530.97"><defs><style>.cls-1{fill:#53545d;}.cls-2{fill:#ffc500;}</style></defs><g id="Слой_2" data-name="Слой 2"><g id="Слой_1-2" data-name="Слой 1"><path class="cls-1" d="M292.82,7.88a6.53,6.53,0,0,1-3.1,5.35,35.24,35.24,0,0,1-4.22,3.1L281,19.15A110.88,110.88,0,0,1,247.2,31.53a188.51,188.51,0,0,1-35.47,3.38,253.54,253.54,0,0,1-26.89-1.41q-13.38-1.39-26.75-3.23T131.34,27a256,256,0,0,0-26.88-1.41,90.08,90.08,0,0,0-22.67,3A60.6,60.6,0,0,0,61.38,38a57.4,57.4,0,0,0-11.54,11.4,24.54,24.54,0,0,0-5.07,15.35A19.07,19.07,0,0,0,48.29,75.6a11.35,11.35,0,0,0,10,5.21,10.16,10.16,0,0,0,6.06-1.55,17.76,17.76,0,0,0,3.52-3.38q1.4-1.83,2.81-3.38A5.42,5.42,0,0,1,74.89,71a7.58,7.58,0,0,1,5.35,2.11,6.88,6.88,0,0,1,2.26,5.21,3,3,0,0,1-.15,1,3.22,3.22,0,0,0-.14,1,41.44,41.44,0,0,1-11.4,17.88q-8,7.47-19.85,7.46-12.66,0-21-8.73a29.84,29.84,0,0,1-8.31-21.39A49,49,0,0,1,24.5,58.84,57.39,57.39,0,0,1,32.24,44.2,78,78,0,0,1,43.5,31.82,82.17,82.17,0,0,1,57.16,22,127,127,0,0,1,96.57,6.33a200.42,200.42,0,0,1,42.52-4.64q27.3,0,54.34,2.53t54.34,2.54a121,121,0,0,0,17.59-1.27,74.73,74.73,0,0,0,17-4.65A7,7,0,0,1,285.5,0a6.67,6.67,0,0,1,5.2,2.39A8.07,8.07,0,0,1,292.82,7.88ZM162.18,45.05a8,8,0,0,1-1.41,4.22c-2.07,3.2-4.13,6.24-6.2,9.15s-4.13,6-6.19,9.15q-6.75,10.71-12.67,21.26T125,110.37q8.73-.84,16.33-1.13a75.92,75.92,0,0,0,10.42-.84,48.29,48.29,0,0,1,1.83-7.6,24.33,24.33,0,0,1,3.52-7,18.14,18.14,0,0,1,5.63-5.07,16,16,0,0,1,8.16-2,11.46,11.46,0,0,1,9,3.8,13.64,13.64,0,0,1,3.38,9.43q0,8.44-5.07,13.37a39.58,39.58,0,0,1-12.38,8q-.28,2.82-1.41,8.59a80.12,80.12,0,0,1-3.24,11.68,45.81,45.81,0,0,1-5.07,10.28c-2,2.91-4.18,4.36-6.61,4.36h-8.73a6.86,6.86,0,0,1-5.21-2.25,7.37,7.37,0,0,1-.42-9.86q3.65-4.77,7-9a48.29,48.29,0,0,0,5.91-9.57,34.2,34.2,0,0,1-4.51.57c-2.25.18-4.83.42-7.74.7s-6,.56-9.15.84-6.19.52-9,.71c-.38,1.12-.7,2.25-1,3.38a26.15,26.15,0,0,1-1,3.09q-2,5.64-4.51,13.52t-5.91,16.47q-3.37,8.6-7.6,17a93.59,93.59,0,0,1-9.43,15.21,49.1,49.1,0,0,1-11.55,11,24.17,24.17,0,0,1-13.65,4.22,49.26,49.26,0,0,1-9.72-1,51.27,51.27,0,0,0-10-1q-3.11,0-6.33.14a48.6,48.6,0,0,0-6.34.7H29.56a6.38,6.38,0,0,1-5.06-2.25,7.82,7.82,0,0,1-2-5.35,6.34,6.34,0,0,1,.84-3.52,13.3,13.3,0,0,1,2.53-2.67q2.25-1.41,4.23-2.68T34.07,192a69.84,69.84,0,0,0,15.2-16.33q6.19-9.3,11.55-19.15Q67,143.88,74.05,130.92a78.48,78.48,0,0,0-13.52,4.37A43.27,43.27,0,0,0,48.71,143a8.33,8.33,0,0,1-5.91,2.81,7.21,7.21,0,0,1-7.32-7.32c0-1.5.74-3.28,2.25-5.35A33,33,0,0,1,47,125.43a65.91,65.91,0,0,1,12-5.35,119.35,119.35,0,0,1,12.95-3.52c4.41-.93,8.49-1.69,12.25-2.25a334.94,334.94,0,0,1,20.55-29.14q11-13.94,23.09-27.45,3.93-4.5,8.3-9.29a89.18,89.18,0,0,1,9.15-8.73A7.23,7.23,0,0,1,148.8,38a26.69,26.69,0,0,1,4.08-.28h2a7.22,7.22,0,0,1,7.33,7.32Z"/><path class="cls-1" d="M281.83,139.37A94.26,94.26,0,0,1,276.34,164a93.39,93.39,0,0,1-12.67,24.08,76,76,0,0,1-18.86,18.3A41.64,41.64,0,0,1,221,213.7a28.12,28.12,0,0,1-12.53-2.82,29.3,29.3,0,0,1-9.71-7.46,34.9,34.9,0,0,1-6.2-10.84,36.79,36.79,0,0,1-2.25-12.67,74.17,74.17,0,0,1,5.07-25.76A96.12,96.12,0,0,1,209.33,129a82.8,82.8,0,0,1,20.56-19.14,45.32,45.32,0,0,1,25.2-7.61,28,28,0,0,1,14.07,3.52A24.76,24.76,0,0,1,279,116.56a9.46,9.46,0,0,1,.56,2.82,6.69,6.69,0,0,1-2.39,5.21A7.78,7.78,0,0,1,272,126.7a5.56,5.56,0,0,1-3.52-1,24.49,24.49,0,0,1-2.53-2.25,15.65,15.65,0,0,0-3.24-2.39,10.82,10.82,0,0,0-5.35-1.13q-7,0-14.08,6a66.41,66.41,0,0,0-12.67,14.93,93.26,93.26,0,0,0-9.15,18.72,52.72,52.72,0,0,0-3.52,17.46,20.63,20.63,0,0,0,2.25,9.85q2.25,4.23,8.73,4.22,7.6,0,14.08-6.47a73.66,73.66,0,0,0,11.54-15.21,107.64,107.64,0,0,0,8.31-17.73q3.23-9,4.64-14.08,1.41-5.62,7-5.63a7.21,7.21,0,0,1,7.32,7.32Z"/><path class="cls-1" d="M381.78,139.37A94.26,94.26,0,0,1,376.29,164a93.39,93.39,0,0,1-12.67,24.08,76,76,0,0,1-18.86,18.3A41.64,41.64,0,0,1,321,213.7a28.12,28.12,0,0,1-12.53-2.82,29.3,29.3,0,0,1-9.71-7.46,34.9,34.9,0,0,1-6.2-10.84,36.79,36.79,0,0,1-2.25-12.67,74.17,74.17,0,0,1,5.07-25.76A96.12,96.12,0,0,1,309.28,129a82.8,82.8,0,0,1,20.56-19.14A45.32,45.32,0,0,1,355,102.2a28,28,0,0,1,14.07,3.52A24.76,24.76,0,0,1,379,116.56a9.46,9.46,0,0,1,.56,2.82,6.69,6.69,0,0,1-2.39,5.21,7.78,7.78,0,0,1-5.21,2.11,5.56,5.56,0,0,1-3.52-1,25.57,25.57,0,0,1-2.53-2.25,15.65,15.65,0,0,0-3.24-2.39,10.82,10.82,0,0,0-5.35-1.13q-7.05,0-14.08,6a66.41,66.41,0,0,0-12.67,14.93,92.73,92.73,0,0,0-9.15,18.72,52.72,52.72,0,0,0-3.52,17.46,20.63,20.63,0,0,0,2.25,9.85q2.25,4.23,8.73,4.22,7.61,0,14.08-6.47a74,74,0,0,0,11.54-15.21,107.64,107.64,0,0,0,8.31-17.73q3.23-9,4.64-14.08,1.41-5.62,7-5.63a7.21,7.21,0,0,1,7.32,7.32Z"/><path class="cls-1" d="M539.17,51A7.86,7.86,0,0,1,538,54.9l-62.5,121.92c-.56,1.31-1.13,2.67-1.69,4.08a11.71,11.71,0,0,0-.85,4.36,4.58,4.58,0,0,0,1.13,3.38,25.21,25.21,0,0,0,2.39,2.11,18.1,18.1,0,0,1,2.4,2.25,6.15,6.15,0,0,1,1.12,4.09,9.35,9.35,0,0,1-.56,2.81q-2.25,4.23-3.38,6.62a13.29,13.29,0,0,1-2.53,3.8,7,7,0,0,1-3.94,1.83,48,48,0,0,1-7.32.42,24,24,0,0,1-11.12-2.67,18.09,18.09,0,0,1-8-8.31,47.17,47.17,0,0,1-13.37,8,41.35,41.35,0,0,1-15.35,2.95q-11.82,0-19.71-7.6t-7.88-19.43a74.13,74.13,0,0,1,5.35-26.6,103.37,103.37,0,0,1,14.22-25.62,86.21,86.21,0,0,1,20.27-19.43q11.4-7.74,23.79-7.74a26.83,26.83,0,0,1,4.93.56A28.43,28.43,0,0,1,461,108.4a14.07,14.07,0,0,1,4.5,2.95,6.33,6.33,0,0,1,1.83,4.65,6.6,6.6,0,0,1-2.11,5.07,8.5,8.5,0,0,1-5.21,2.25h-2.53q-7.61,0-15.49,6.48a69.29,69.29,0,0,0-14.07,16,101.23,101.23,0,0,0-10.14,20.42,57.84,57.84,0,0,0-3.94,19.56,11.52,11.52,0,0,0,2.11,6.9,7,7,0,0,0,6.05,3,14.88,14.88,0,0,0,7.61-2,28.67,28.67,0,0,0,6.33-5.07,40.3,40.3,0,0,0,5.21-6.76q2.25-3.65,3.94-7L506.23,56A25.83,25.83,0,0,1,511,49.41a16.44,16.44,0,0,1,5.64-3.52,25.14,25.14,0,0,1,6.61-1.4q3.53-.29,7.74-.29h1.69a6,6,0,0,1,4.79,2A7.12,7.12,0,0,1,539.17,51Z"/><path class="cls-1" d="M34.07,448.15a44.68,44.68,0,0,1-12-1.69,36.75,36.75,0,0,1-11-5.07,27.52,27.52,0,0,1-8-8.45A22.17,22.17,0,0,1,0,421.12a28.67,28.67,0,0,1,3.94-15.21,34.09,34.09,0,0,1,10.28-10.7,47.75,47.75,0,0,1,14.22-6.33,59.51,59.51,0,0,1,15.48-2.11,66.61,66.61,0,0,1,23,3.94q10.83,3.94,21.26,8.59t20.69,8.58a58.84,58.84,0,0,0,21.26,3.95A86.32,86.32,0,0,0,164,405.35a78.45,78.45,0,0,0,26.33-17.88,80.3,80.3,0,0,0,17-27,93,93,0,0,0,6.06-33.93,89.64,89.64,0,0,0-2-18.58,79.34,79.34,0,0,0-5.92-17.59,68.61,68.61,0,0,0-10-15.35A54.22,54.22,0,0,0,181,263.17a63.78,63.78,0,0,0-23.23-7.47,100,100,0,0,0-25.34.15A111.33,111.33,0,0,0,107.69,262a89.73,89.73,0,0,0-21,11,86,86,0,0,0-9,7.18,56.27,56.27,0,0,0-8,9,53.43,53.43,0,0,0-5.77,10.28,28.73,28.73,0,0,0-2.25,11.26,10.84,10.84,0,0,0,2.25,6.47,7.24,7.24,0,0,0,6.2,3.1,6.1,6.1,0,0,0,3.94-1.13,15.53,15.53,0,0,0,2.53-2.53,20,20,0,0,1,2.4-2.53,5.56,5.56,0,0,1,3.8-1.13,7.9,7.9,0,0,1,5.35,2A6.45,6.45,0,0,1,90.38,320a17.26,17.26,0,0,1-.56,2.81,35.67,35.67,0,0,1-12.25,15.91,31.44,31.44,0,0,1-19,6.06,27.19,27.19,0,0,1-10.84-2.12,25.73,25.73,0,0,1-8.58-5.91,28.25,28.25,0,0,1-7.89-19.85,51.21,51.21,0,0,1,2.68-16.61,59.19,59.19,0,0,1,7.32-14.64,76.5,76.5,0,0,1,11-12.67,111.34,111.34,0,0,1,13.37-10.7A149.34,149.34,0,0,1,99.39,247a157.43,157.43,0,0,1,36.74-7,118.06,118.06,0,0,1,35.62,2.81,77.65,77.65,0,0,1,30.4,14.5Q215.4,267.67,223.27,285t7.89,42.65q0,3.94-.29,7.88c-.19,2.64-.47,5.26-.84,7.89a151.58,151.58,0,0,1-11.69,40.82A114.81,114.81,0,0,1,196,417.6a102.93,102.93,0,0,1-32.52,22.52q-18.72,8.31-41.81,8.31a80.8,80.8,0,0,1-22.38-3.1,101.45,101.45,0,0,1-20.7-8.45,79.23,79.23,0,0,1-20,8.31A94.2,94.2,0,0,1,34.07,448.15Zm-4.22-35.76q-9,0-12,3.52a7.6,7.6,0,0,0-1.55,7.74q1.41,4.23,6.19,7.88a19.82,19.82,0,0,0,11.55,4,32.09,32.09,0,0,0,14.5-2.12,44.5,44.5,0,0,0,12.25-7.46q-7.05-4.78-14.51-9.15A32,32,0,0,0,29.85,412.39Zm145.28-136a5.78,5.78,0,0,1-.85,3.24,17.93,17.93,0,0,1-2.25,2.67,69.48,69.48,0,0,0-11.26,17.46q-6.48,14.09-11.27,27.31a225.61,225.61,0,0,1-10.84,25.2,103.51,103.51,0,0,1-15.2,22.24q-9.15,10.28-24.64,18.16a5.93,5.93,0,0,1-3.09.84,7.53,7.53,0,0,1-5.35-2.11,6.82,6.82,0,0,1-2.25-5.21,22.15,22.15,0,0,1,.7-3.8q.7-3,1.55-6.19t1.69-6.34c.56-2.06.93-3.56,1.12-4.5q2.25-9,4.79-19.71t6.19-21.4a153.48,153.48,0,0,1,8.73-20.55A78.27,78.27,0,0,1,125,286.25,57.15,57.15,0,0,1,141.2,274a45.65,45.65,0,0,1,21-4.65,35.8,35.8,0,0,1,8.31,1.13A5.52,5.52,0,0,1,175.13,276.4Z"/><path class="cls-1" d="M315.32,394.87c-1.32-5.25-3.94-8.21-7.89-8.87a24.93,24.93,0,0,0-12.95,1.69,56.52,56.52,0,0,0-13.65,7.61,75.62,75.62,0,0,0-10,8.58,73.62,73.62,0,0,0-13.09,20.42,62.76,62.76,0,0,0-4.93,25.19,18.74,18.74,0,0,0,2.26,9q2.25,4.23,7.88,4.23a14,14,0,0,0,7.74-2.26,30,30,0,0,0,6.48-5.63,57,57,0,0,0,5.35-7.18q2.39-3.8,4.08-7.18a47.32,47.32,0,0,1,7.32-10.27q3.94-4.08,12.11-4.08h7.32a6.87,6.87,0,0,1,5.21,2.25,7.53,7.53,0,0,1,2.11,5.35,9.11,9.11,0,0,1-1.13,3.94q-1.12,2.25-2.67,4.93a40.92,40.92,0,0,0-2.68,5.49,15.06,15.06,0,0,0-1.12,5.63,4.45,4.45,0,0,0,1,3.24,15.32,15.32,0,0,0,2.25,1.83,10.69,10.69,0,0,1,2.4,2.25,6.75,6.75,0,0,1,1.12,4.22,6.35,6.35,0,0,1-.56,2.82l-3.1,6.61a11.77,11.77,0,0,1-2.67,3.8,7.78,7.78,0,0,1-4.08,1.83,44.13,44.13,0,0,1-7,.43,23.76,23.76,0,0,1-11.26-2.68,18.33,18.33,0,0,1-7.89-8.3,52.15,52.15,0,0,1-13.51,8,41.05,41.05,0,0,1-15.49,3q-12.66,0-20.83-8.45t-8.17-21.12A73.6,73.6,0,0,1,233,418.66a90.73,90.73,0,0,1,20.56-27.59,83,83,0,0,1,29.14-17.31,60.59,60.59,0,0,1,33.22-2,33.94,33.94,0,0,1,15.49,8.44q6.47,6.19,6.47,17.18a21.46,21.46,0,0,1-1.69,8.3,26.56,26.56,0,0,1-4.64,7.46,22.88,22.88,0,0,1-6.76,5.35,17.7,17.7,0,0,1-8.3,2,18.7,18.7,0,0,1-5.64-1,24.89,24.89,0,0,1-5.77-2.68,16,16,0,0,1-4.5-4.22,9.32,9.32,0,0,1-1.83-5.63q0-7,7-7a8,8,0,0,1,2.11.28,8.66,8.66,0,0,0,2.39.28,4.43,4.43,0,0,0,3.8-1.69A6.32,6.32,0,0,0,315.32,394.87Z"/><path class="cls-1" d="M394.33,522.88q-6.48,2.54-13.51,4.51a106.58,106.58,0,0,1-14.36,3,68.5,68.5,0,0,1-14.5.43,44.24,44.24,0,0,1-13.37-3.1,27.15,27.15,0,0,1-11.69-9.15q-4.36-6.06-4.36-15.63a21.06,21.06,0,0,1,1.83-8.44,29,29,0,0,1,4.78-7.61,23.85,23.85,0,0,1,7-5.49,18,18,0,0,1,8.31-2.11,18.68,18.68,0,0,1,5.63,1A24.22,24.22,0,0,1,356,483a17.38,17.38,0,0,1,4.65,4.37,9,9,0,0,1,1.83,5.35q0,7-7,7a7.52,7.52,0,0,1-2.11-.29,7.63,7.63,0,0,0-2.11-.28,5.78,5.78,0,0,0-5.64,5.63c0,3.76,1.5,6.38,4.51,7.89A23,23,0,0,0,360.55,515a42.69,42.69,0,0,0,11.82-1.69,35.79,35.79,0,0,0,9-3.66,58.76,58.76,0,0,0,9-7.88,83.56,83.56,0,0,0,7.74-9.58q3.53-5.07,6.62-10.41t5.63-10.42a43.75,43.75,0,0,1-11,6.19,50.74,50.74,0,0,1-10.13,2.68,60.34,60.34,0,0,1-8.45.7h-5.91a22.59,22.59,0,0,1-15.77-6.19,19.82,19.82,0,0,1-6.76-15.21,23.7,23.7,0,0,1,1.55-8.72,78.2,78.2,0,0,1,3.8-8.17q1.13-2.25,4.51-8.73t6.89-13.65q3.53-7.18,6.2-13.24t2.67-7.74c0-3-.84-4.93-2.53-5.77a21,21,0,0,0-5.49-1.83,24.76,24.76,0,0,1-5.49-1.69q-2.53-1.12-2.53-5.63a7.25,7.25,0,0,1,4.22-6.76,39.1,39.1,0,0,1,9.15-3.1,46.79,46.79,0,0,1,9.71-1.12A27.29,27.29,0,0,1,401,378.16q6.9,4.8,6.9,14.65A43,43,0,0,1,404.19,410l-14.64,33.5q-1.14,2.53-2.11,5.07a14.4,14.4,0,0,0-1,5.35,7.41,7.41,0,0,0,3.24,6.48c2.15,1.5,5,1.92,8.58,1.26s7.7-2.62,12.39-5.91,9.58-8.3,14.64-15.06V441q6.19-13.23,12.11-26.46t11.83-26.75q6.18-14.37,21.68-14.36a39.05,39.05,0,0,1,6.61.56,38.16,38.16,0,0,0,6.62.56,24.71,24.71,0,0,0,3.8-.28,24.14,24.14,0,0,1,3.52-.28,5.4,5.4,0,0,1,4.64,2.11,7.71,7.71,0,0,1,1.55,4.65,7.94,7.94,0,0,1-3.94,7,75,75,0,0,0-14.36,15.2,222.36,222.36,0,0,0-13.23,20.27q-6.19,10.71-11.54,21.54T445,464q-4.78,9.85-10,18.86a134.88,134.88,0,0,1-11.27,16.61,95.71,95.71,0,0,1-13.23,13.66A59.88,59.88,0,0,1,394.33,522.88Z"/><rect class="cls-2" x="19.09" y="471.26" width="165.49" height="21.49" rx="10"/></g></g></svg>